<svg width="512" height="512" viewBox="0 0 512 512" fill="none" xmlns="http://www.w3.org/2000/svg">
<circle cx="256" cy="256" r="256" fill="#DB4347"/>
<path d="M397.733 237.812C399.063 241.765 400.399 245.814 401.745 249.966C420.003 448.011 218.888 476.891 146.294 392.046C145.474 391.088 144.671 390.125 143.882 389.156L204.033 328.75L255.846 380.345L280.36 355.726L280.339 355.704L397.733 237.812ZM274.11 75.3369C334.121 109.967 361.331 144.009 384.584 201.778L255.72 331.188L203.912 279.6L179.397 304.219L179.414 304.235L124.796 359.084C85.7394 277.459 128.422 176.588 167.871 148.846C167.871 265.326 274.11 222.537 274.11 131.475V75.3369Z" fill="#FFC783"/>
</svg>
