<svg width="512" height="512" viewBox="0 0 512 512" fill="none" xmlns="http://www.w3.org/2000/svg">
<circle cx="256" cy="256" r="256" fill="#AB78F9"/>
<path d="M219.02 172.68C334.932 126.796 446.198 133.303 467.539 187.213L467.784 187.845C488.279 241.754 411.76 322.201 296.3 367.906L293.584 368.971C179.108 413.509 69.8211 406.914 48.0376 354.003L47.7827 353.373C26.443 299.463 103.108 218.564 219.02 172.68ZM377.577 162.489C336.117 160.065 282.255 169.159 226.381 191.276C170.508 213.393 125.016 243.63 96.4487 273.774C66.633 305.236 60.2815 330.606 66.3794 346.011C72.4776 361.416 94.4728 375.565 137.745 378.095C179.204 380.52 233.066 371.427 288.939 349.31C344.812 327.193 390.306 296.955 418.873 266.811C448.688 235.349 455.04 209.979 448.942 194.574C442.844 179.169 420.848 165.019 377.577 162.489Z" fill="white"/>
<path d="M31.04 204.665C43.5378 153.639 151.827 136.315 272.911 165.971C393.996 195.627 482.024 261.034 469.526 312.06L469.375 312.655C456.182 363.219 348.266 380.293 227.654 350.753C107.043 321.213 19.2317 256.202 30.8984 205.264L31.04 204.665ZM268.153 185.397C209.559 171.046 154.968 168.324 114.415 174.812C94.0954 178.062 78.3048 183.466 67.417 190.042C56.6224 196.562 51.9525 203.354 50.4658 209.423C48.9794 215.492 49.9821 223.674 56.542 234.444C63.1584 245.308 74.6651 257.396 91.1826 269.669C124.147 294.162 173.818 316.976 232.412 331.327C291.006 345.678 345.599 348.4 386.151 341.912C406.471 338.662 422.261 333.259 433.148 326.683C443.943 320.163 448.614 313.371 450.101 307.302C451.587 301.232 450.583 293.051 444.023 282.28C437.407 271.417 425.901 259.328 409.384 247.055C376.419 222.561 326.747 199.747 268.153 185.397Z" fill="white"/>
<path d="M283.633 121.62L283.982 122.239L284.645 122.499L329.713 140.184L296.958 175.836L296.477 176.36L296.434 177.07L293.541 225.397L249.513 205.263L248.867 204.967L248.178 205.146L201.321 217.329L206.865 169.234L206.947 168.527L206.564 167.927L180.496 127.129L227.952 117.539L228.649 117.398L229.101 116.849L259.847 79.4504L283.633 121.62Z" fill="#FEE91F" stroke="#665C00" stroke-width="4"/>
<path d="M463.188 251.063L463.242 251.772L463.733 252.287L483.737 273.312L456.91 284.384L456.253 284.655L455.914 285.281L442.099 310.803L423.28 288.71L422.819 288.169L422.12 288.041L393.576 282.789L408.772 258.063L409.145 257.458L409.051 256.753L405.225 227.983L433.437 234.796L434.128 234.963L434.77 234.656L460.948 222.127L463.188 251.063Z" fill="#FEE91F" stroke="#665C00" stroke-width="4"/>
<path d="M87.0193 252.49L87.6612 252.797L88.3529 252.63L111.019 247.157L107.946 270.272L107.852 270.978L108.225 271.583L120.433 291.449L97.5012 295.669L96.8019 295.798L96.34 296.339L81.2186 314.09L70.1199 293.583L69.7814 292.958L69.1233 292.687L47.5674 283.791L63.6416 266.897L64.1322 266.382L64.1871 265.672L65.9856 242.424L87.0193 252.49Z" fill="#FEE91F" stroke="#665C00" stroke-width="4"/>
</svg>
