<svg width="512" height="512" viewBox="0 0 512 512" fill="none" xmlns="http://www.w3.org/2000/svg">
<circle cx="256" cy="256" r="256" fill="url(#paint0_linear_2012_134)"/>
<path d="M230.505 202.337L230.534 202.304L230.655 202.447L229.842 203.129L230.271 202.615L229.475 203.284L229.565 203.36L89.1777 321.161L51.5654 276.336L139.613 202.454L51.5654 128.574L89.1777 83.749L230.505 202.337Z" fill="#666600"/>
<path d="M278.459 202.337L278.43 202.304L278.309 202.447L279.122 203.129L278.692 202.615L279.489 203.284L279.398 203.36L419.786 321.161L457.398 276.336L369.351 202.454L457.398 128.574L419.786 83.749L278.459 202.337Z" fill="#666600"/>
<path d="M347.373 306.777L446.451 387.395L407.212 435.618L347.199 386.788L287.188 435.618L287.174 435.601L258.651 452.022L230.067 435.565H230.034V435.478L170.194 386.788L110.183 435.618L70.9434 387.395L170.021 306.777L170.159 306.608L170.194 306.637L170.229 306.608L170.367 306.777L258.697 378.648L347.026 306.777L347.165 306.608L347.199 306.637L347.235 306.608L347.373 306.777ZM287.085 435.565H287.146L287.085 435.49V435.565Z" fill="#666600"/>
<defs>
<linearGradient id="paint0_linear_2012_134" x1="256" y1="0" x2="256" y2="512" gradientUnits="userSpaceOnUse">
<stop offset="0.201923" stop-color="#B3BFFF"/>
<stop offset="1" stop-color="#FEFEB3"/>
</linearGradient>
</defs>
</svg>
