<svg width="512" height="512" viewBox="0 0 512 512" fill="none" xmlns="http://www.w3.org/2000/svg">
<circle cx="256" cy="256" r="256" fill="url(#paint0_radial_2012_132)"/>
<path d="M302.548 86.4111L258.994 129.964L357.303 191.088V128.103H423.132V193.932H358.934V318.274H423.132V384.103H357.303V321.116L258.994 382.24L302.548 425.794L256 472.342L209.452 425.794L253.005 382.24L154.331 320.889V384.103H88.5029V318.274H153.066V193.932H88.5029V128.103H154.331V191.315L253.005 129.964L209.452 86.4111L256 39.8633L302.548 86.4111ZM221.346 179.302L178.469 222.179V294.501H204.068V238.183H204.243L204.068 238.008L255.269 186.808V186.162L248.408 179.302H221.346Z" fill="#6BFBFF"/>
<defs>
<radialGradient id="paint0_radial_2012_132" cx="0" cy="0" r="1" gradientUnits="userSpaceOnUse" gradientTransform="translate(256 256) rotate(90) scale(256)">
<stop offset="0.663462" stop-color="#2096A6"/>
<stop offset="1" stop-color="#19AAC5"/>
</radialGradient>
</defs>
</svg>
