<svg xmlns="http://www.w3.org/2000/svg" viewBox="0 -20 42 82" data-asc="0.75" width="42" height="32"><defs/><g fill="#ffffff"><g transform="translate(0, 0)"><path d="M16.38 35.67Q16.38 36.16 16.33 36.49Q16.28 36.82 16.17 37.05Q16.06 37.28 15.91 37.39Q15.75 37.50 15.53 37.50L1.56 37.50Q1.00 37.50 0.50 37.12Q0 36.74 0 35.79L0 6.54Q0 6.35 0.10 6.20Q0.20 6.05 0.44 5.97Q0.68 5.88 1.10 5.82Q1.51 5.76 2.10 5.76Q2.71 5.76 3.11 5.82Q3.52 5.88 3.76 5.97Q4.00 6.05 4.10 6.20Q4.20 6.35 4.20 6.54L4.20 33.86L15.53 33.86Q15.75 33.86 15.91 33.97Q16.06 34.08 16.17 34.29Q16.28 34.50 16.33 34.84Q16.38 35.18 16.38 35.67ZM36.67 14.87Q36.67 14.97 36.66 15.08Q36.65 15.19 36.62 15.31Q36.60 15.43 36.56 15.58Q36.52 15.72 36.47 15.89L28.98 36.77Q28.88 37.04 28.72 37.21Q28.56 37.38 28.25 37.48Q27.93 37.57 27.44 37.61Q26.95 37.65 26.22 37.65Q25.49 37.65 25 37.60Q24.51 37.55 24.21 37.45Q23.90 37.35 23.73 37.18Q23.56 37.01 23.46 36.77L15.99 15.89Q15.89 15.60 15.83 15.38Q15.77 15.16 15.76 15.05Q15.75 14.94 15.75 14.87Q15.75 14.67 15.84 14.53Q15.94 14.38 16.17 14.29Q16.41 14.21 16.78 14.18Q17.16 14.16 17.72 14.16Q18.43 14.16 18.86 14.20Q19.29 14.23 19.52 14.33Q19.75 14.43 19.86 14.58Q19.97 14.72 20.07 14.94L26.27 33.06L26.37 33.35L26.44 33.06L32.57 14.94Q32.62 14.72 32.74 14.58Q32.86 14.43 33.09 14.33Q33.33 14.23 33.73 14.20Q34.13 14.16 34.79 14.16Q35.35 14.16 35.72 14.18Q36.08 14.21 36.29 14.31Q36.50 14.40 36.58 14.54Q36.67 14.67 36.67 14.87ZM42.33 34.84Q42.33 36.57 41.76 37.15Q41.19 37.72 39.67 37.72Q38.21 37.72 37.65 37.16Q37.08 36.60 37.08 34.91Q37.08 33.18 37.66 32.60Q38.23 32.03 39.75 32.03Q41.21 32.03 41.77 32.59Q42.33 33.15 42.33 34.84Z"/></g></g></svg>